<svg width="496" height="501" viewBox="0 0 496 501" fill="none" xmlns="http://www.w3.org/2000/svg">
<path d="M0.936722 168.151L113.235 0.499997H298.035C301.937 0.500031 301.32 1.50003 301.32 4.85259V168.151L410.298 0.499997H494.937V89.0478L441.83 168.151H364.384H301.32V500.5H168.554V324L301.32 168.151H0.936722Z" fill="white"/>
<path d="M301.32 168.151H0.936722C44.7918 102.679 113.235 0.499997 113.235 0.499997C113.235 0.499997 294.133 0.499963 298.035 0.499997C301.937 0.500031 301.32 1.50003 301.32 4.85259C301.32 8.20515 301.32 168.151 301.32 168.151ZM301.32 168.151L168.554 324V500.5H301.32V168.151ZM301.32 168.151H364.384H441.83L494.937 89.0478V0.499997C461.883 0.499997 443.352 0.499997 410.298 0.499997L301.32 168.151Z" stroke="white"/>
</svg>
