<?xml version="1.0" encoding="UTF-8"?>
<svg xmlns="http://www.w3.org/2000/svg" xmlns:xlink="http://www.w3.org/1999/xlink" width="48px" height="48px" viewBox="0 0 12 12" version="1.1">
<g id="surface1">
<path style=" stroke:none;fill-rule:nonzero;fill:rgb(0%,0%,0%);fill-opacity:1;" d="M 0.0703125 4.027344 L 2.765625 0.0117188 L 7.199219 0.0117188 C 7.292969 0.0117188 7.28125 0.0351562 7.28125 0.117188 L 7.28125 4.027344 L 9.894531 0.0117188 L 11.925781 0.0117188 L 11.925781 2.132812 L 10.652344 4.027344 L 7.28125 4.027344 L 7.28125 11.988281 L 4.09375 11.988281 L 4.09375 7.761719 L 7.28125 4.027344 Z M 0.0703125 4.027344 "/>
<path style="fill:none;stroke-width:1;stroke-linecap:butt;stroke-linejoin:miter;stroke:rgb(0%,0%,0%);stroke-opacity:1;stroke-miterlimit:4;" d="M 301.385417 168.141597 L 0.929687 168.141597 C 44.875 102.744138 113.234375 0.489258 113.234375 0.489258 C 113.234375 0.489258 294.061198 0.489258 297.967448 0.489258 C 301.873698 0.489258 301.385417 1.467773 301.385417 4.892578 C 301.385417 8.154297 301.385417 168.141597 301.385417 168.141597 Z M 301.385417 168.141597 L 168.572917 324.051749 L 168.572917 500.510729 L 301.385417 500.510729 Z M 301.385417 168.141597 L 441.847656 168.141597 L 494.907552 89.044919 L 494.907552 0.489258 C 461.867188 0.489258 443.3125 0.489258 410.272135 0.489258 Z M 301.385417 168.141597 " transform="matrix(0.024,0,0,0.0239521,0.048,0)"/>
</g>
</svg>
